<?xml version="1.0" encoding="UTF-8"?>
<svg width="128" height="128" viewBox="0 0 128 128" xmlns="http://www.w3.org/2000/svg">
  <defs>
    <linearGradient id="zoneGlow" x1="0" y1="0" x2="1" y2="0">
      <stop offset="0.00" stop-color="#ff2740"/>
      <stop offset="0.33" stop-color="#37f558"/>
      <stop offset="0.66" stop-color="#3584e4"/>
      <stop offset="1.00" stop-color="#e01b96"/>
    </linearGradient>
  </defs>

  <!-- Laptop deck -->
  <rect x="10" y="26" width="108" height="76" rx="14" fill="#241f31"/>

  <!-- Backlight glow strip -->
  <rect x="20" y="38" width="88" height="52" rx="8" fill="url(#zoneGlow)" opacity="0.9"/>

  <!-- Keycap grid (dark caps over the glow) -->
  <g fill="#241f31">
    <g opacity="0.55">
      <rect x="24" y="42" width="80" height="10" rx="2.5"/>
      <rect x="24" y="55" width="80" height="10" rx="2.5"/>
      <rect x="24" y="68" width="80" height="10" rx="2.5"/>
      <rect x="24" y="81" width="80" height="5" rx="2"/>
    </g>
    <g opacity="0.9">
      <rect x="34" y="42" width="3" height="44"/>
      <rect x="45" y="42" width="3" height="44"/>
      <rect x="56" y="42" width="3" height="44"/>
      <rect x="67" y="42" width="3" height="44"/>
      <rect x="78" y="42" width="3" height="44"/>
      <rect x="89" y="42" width="3" height="44"/>
    </g>
  </g>
</svg>
